<svg xmlns="http://www.w3.org/2000/svg" xmlns:xlink="http://www.w3.org/1999/xlink" viewBox="0 0 1651 1322">
  <defs>
    <path id="path-1" fill-rule="evenodd" d="M0 298h1440v1024H0V298z"/>
    <linearGradient id="linearGradient-2" x1="720" x2="720" y1="298" y2="1322" gradientUnits="userSpaceOnUse">
      <stop offset="0" stop-color="rgb(151,195,240)"/>
      <stop offset="1" stop-color="rgb(226,220,240)"/>
    </linearGradient>
    <mask id="mask-3" maskContentUnits="userSpaceOnUse" maskUnits="userSpaceOnUse">
      <rect width="1651" height="1322" x="0" y="0" fill="black"/>
      <use fill="white" xlink:href="#path-1"/>
    </mask>
  </defs>
  <g>
    <g>
      <use fill="url(#linearGradient-2)" xlink:href="#path-1"/>
      <g mask="url(#mask-3)">
        <path fill="rgb(255,255,255)" fill-rule="evenodd" d="M-60.1064803 1165.48249082s148.8750786-90.78494696 275.62193816-.44186481c126.74685957 90.34308215 263.4600212-2.4086616 263.4600212-2.4086616s218.27440443-191.98860115 429.30809768-5.67115217c211.03369324 186.31744898 347.45777706-7.40538852 347.45777706-7.40538852s149.88685098-122.70220473 344.60829567-4.26250044c194.72144469 118.43970429 10.49627808-1.53489883 10.49627808-1.53489883v221.49470585H-76.53999168l16.43351138-199.77023948z"/>
        <g opacity=".1">
          <path fill="rgb(255,255,255)" fill-rule="evenodd" d="M1780.39206837 1116.27915334s-166.21591314-116.31537006-307.7261323-.56612546c-141.51021917 115.7492446-294.14760627-3.08602222-294.14760627-3.08602222s-243.69880968-245.97938246-479.3135167-7.26598612c-235.61470703 238.71339634-387.92934478-9.48792212-387.92934478-9.48792212s-167.34553586-157.20835697-384.74795836-5.4611952c-217.4024225 151.74716179-11.71887506-1.96654105-11.71887506-1.96654105v283.783155h1883.9311054"/>
        </g>
        <g opacity=".1">
          <path fill="rgb(255,255,255)" fill-rule="evenodd" d="M-386.21944368 1061.99891907s185.89823567-137.81272547 344.16527265-.67075651c158.26703698 137.14196896 328.97885645-3.6563795 328.97885645-3.6563795s272.55620656-291.44118346 536.071038-8.60888246c263.51483143 282.832301 433.86568345-11.2414757 433.86568345-11.2414757s187.16162174-186.26353619 430.30757576-6.47053088c243.14595401 179.7930053 13.10655614-2.32999631 13.10655614-2.32999631v336.23183259H-406.7397403l20.52029662-303.25381123z"/>
        </g>
      </g>
    </g>
    <g>
      <g opacity=".1">
        <ellipse cx="1267" cy="384" fill="rgb(255,255,255)" rx="384" ry="384"/>
      </g>
    </g>
  </g>
</svg>
