<?xml version="1.0" encoding="UTF-8" standalone="no"?>
<!DOCTYPE svg PUBLIC "-//W3C//DTD SVG 1.1//EN" "http://www.w3.org/Graphics/SVG/1.1/DTD/svg11.dtd">
<svg version="1.1" xmlns="http://www.w3.org/2000/svg" xmlns:xlink="http://www.w3.org/1999/xlink" preserveAspectRatio="xMidYMid meet" viewBox="0 0 640 640" width="640" height="640"><defs><path d="M125.47 449L273.29 129.07L373.12 129.07L520.94 449L520.94 449L125.47 449Z" id="b2zkYnB7VE"></path><linearGradient id="gradientb34GH8ijOW" gradientUnits="userSpaceOnUse" x1="323.2" y1="124.62" x2="323.2" y2="460.29"><stop style="stop-color: #ffffff;stop-opacity: 1" offset="0%"></stop><stop style="stop-color: #ffffff;stop-opacity: 0.864" offset="9.3%"></stop><stop style="stop-color: #ffffff;stop-opacity: 0.605" offset="28.4%"></stop><stop style="stop-color: #ffffff;stop-opacity: 0.389" offset="46.6%"></stop><stop style="stop-color: #ffffff;stop-opacity: 0.221" offset="63.3%"></stop><stop style="stop-color: #ffffff;stop-opacity: 0.1" offset="78.4%"></stop><stop style="stop-color: #ffffff;stop-opacity: 0.026" offset="91.10000000000001%"></stop><stop style="stop-color: #ffffff;stop-opacity: 0" offset="100%"></stop></linearGradient><path d="" id="aGFFiH9D1"></path><path d="" id="a3XRGY7Tjp"></path><path d="M116.84 359.54L121.85 335.65L148.2 329.67" id="a8Oajx0QWC"></path><path d="M415.03 278.95C421.07 278.95 425.98 283.85 425.98 289.9C425.98 299.41 425.98 346.96 425.98 432.55L187.9 432.55C187.9 346.96 187.9 299.41 187.9 289.9C187.9 283.85 192.8 278.95 198.85 278.95C198.85 278.95 393.41 278.95 415.03 278.95Z" id="a15l8uHvm"></path><path d="M415.03 278.95C421.07 278.95 425.98 283.85 425.98 289.9C425.98 299.41 425.98 346.96 425.98 432.55L187.9 432.55C187.9 346.96 187.9 299.41 187.9 289.9C187.9 283.85 192.8 278.95 198.85 278.95C198.85 278.95 393.41 278.95 415.03 278.95Z" id="a1yMMNXBxx"></path><path d="M408.06 414.81C408.06 414.81 408.06 414.81 408.06 414.81C286.71 414.81 219.3 414.81 205.82 414.81C205.82 414.81 205.82 414.81 205.82 414.81C205.82 344.15 205.82 304.9 205.82 297.05C205.82 297.05 205.82 297.05 205.82 297.05C327.16 297.05 394.58 297.05 408.06 297.05C408.06 297.05 408.06 297.05 408.06 297.05C408.06 367.7 408.06 406.96 408.06 414.81Z" id="e1miLCKxX"></path><path d="M323.2 396.02L356.48 396.02" id="n56xOC0hsE"></path><path d="M407.25 361.43C407.25 360.69 407.25 354.83 407.25 354.09C406.55 353.89 405.82 353.78 405.09 353.78C405.01 353.78 404.41 353.78 404.34 353.78C402.73 353.78 401.92 354.58 401.92 356.19C401.92 356.71 401.92 357 401.92 357.06C401.92 358.61 402.73 359.41 404.34 359.41C405.66 359.33 406.86 360.16 407.25 361.43Z" id="d1iSrpBGZN"></path><path d="M407.25 394.56C406.85 395.81 405.65 396.64 404.34 396.55C402.73 396.55 401.92 397.36 401.92 398.97C401.92 399.48 401.92 399.77 401.92 399.83C401.92 401.44 402.73 402.24 404.34 402.24C404.79 402.24 405.04 402.24 405.09 402.24C405.82 402.24 406.55 402.14 407.25 401.93C407.25 400.45 407.25 396.03 407.25 394.56Z" id="a1LL9uyMbD"></path><path d="M407.25 413.3C407.25 413.3 407.25 413.3 407.25 413.3C285.91 413.3 218.49 413.3 205.01 413.3C205.01 413.3 205.01 413.3 205.01 413.3C205.01 342.65 205.01 303.39 205.01 295.54C205.01 295.54 205.01 295.54 205.01 295.54C326.35 295.54 393.77 295.54 407.25 295.54C407.25 295.54 407.25 295.54 407.25 295.54C407.25 366.2 407.25 405.45 407.25 413.3Z" id="aQdTEOkHu"></path><path d="M452.25 432.64C453.67 432.64 454.81 433.79 454.81 435.2C454.81 435.51 454.81 437.96 454.81 438.27C454.81 445.34 449.08 451.07 442.01 451.07C415 451.07 198.88 451.07 171.87 451.07C164.8 451.07 159.07 445.34 159.07 438.27C159.07 437.96 159.07 435.51 159.07 435.2C159.07 433.79 160.21 432.64 161.63 432.64C219.75 432.64 423.19 432.64 452.25 432.64Z" id="bXY7biye"></path><path d="M171.86 445.3C165.52 445.3 160.14 440.65 159.22 434.37C159.12 434.63 159.07 434.92 159.07 435.2C159.07 435.51 159.07 437.96 159.07 438.27C159.07 445.34 164.8 451.07 171.87 451.07C171.87 451.07 171.87 451.07 171.87 451.07C198.88 451.07 415 451.07 442.01 451.07C449.08 451.07 454.81 445.34 454.81 438.27C454.81 437.96 454.81 435.51 454.81 435.2C454.81 434.92 454.76 434.63 454.66 434.37C453.74 440.65 448.36 445.3 442.01 445.3C387.98 445.3 198.88 445.3 171.86 445.3Z" id="ca5CiwCuw"></path><path d="M452.25 432.64C453.67 432.64 454.81 433.79 454.81 435.2C454.81 435.51 454.81 437.96 454.81 438.27C454.81 445.34 449.08 451.07 442.01 451.07C415 451.07 198.88 451.07 171.87 451.07C164.8 451.07 159.07 445.34 159.07 438.27C159.07 437.96 159.07 435.51 159.07 435.2C159.07 433.79 160.21 432.64 161.63 432.64C219.75 432.64 423.19 432.64 452.25 432.64Z" id="i3AbLIeM3l"></path><path d="M333.82 432.55C333.82 432.55 333.82 432.55 333.82 432.55C333.82 435.37 331.53 437.67 328.7 437.67C324.35 437.67 289.53 437.67 285.18 437.67C282.35 437.67 280.06 435.37 280.06 432.55C280.06 432.55 280.06 432.55 280.06 432.55L333.82 432.55Z" id="a3Mj8TIXUw"></path><path d="M333.82 432.55C333.82 432.55 333.82 432.55 333.82 432.55C333.82 435.37 331.53 437.67 328.7 437.67C324.35 437.67 289.53 437.67 285.18 437.67C282.35 437.67 280.06 435.37 280.06 432.55C280.06 432.55 280.06 432.55 280.06 432.55L333.82 432.55Z" id="b5vLOUxN9"></path><path d="M306.43 282.64C303.61 282.64 301.31 284.93 301.31 287.76C301.31 290.58 303.61 292.88 306.43 292.88C309.26 292.88 311.55 290.58 311.55 287.76C311.55 284.93 309.26 282.64 306.43 282.64Z" id="bfBoTXUl"></path><path d="M306.43 282.64C303.61 282.64 301.31 284.93 301.31 287.76C301.31 290.58 303.61 292.88 306.43 292.88C309.26 292.88 311.55 290.58 311.55 287.76C311.55 284.93 309.26 282.64 306.43 282.64Z" id="a3KckbKfFw"></path><path d="M129.64 451.06C131.89 451.06 133.79 449.39 134.08 447.15C134.64 442.76 137.44 420.81 142.47 381.29L85.38 381.29C90.41 420.81 93.21 442.76 93.77 447.15C94.06 449.39 95.96 451.06 98.21 451.06C104.5 451.06 126.49 451.06 129.64 451.06Z" id="b1cp1k9YX2"></path><path d="M94.11 381.3C98.11 417.79 100.33 438.06 100.77 442.12C101.05 444.71 103.24 446.67 105.85 446.67C107.74 446.67 117.17 446.67 134.14 446.67C134.11 446.96 134.09 447.12 134.08 447.15C133.8 449.39 131.89 451.06 129.64 451.06C126.5 451.06 101.36 451.06 98.22 451.06C95.96 451.06 94.06 449.39 93.77 447.15C93.21 442.76 90.41 420.81 85.38 381.3L94.11 381.3Z" id="d13AJrNRZK"></path><path d="M129.64 451.06C131.89 451.06 133.79 449.39 134.08 447.15C134.64 442.76 137.44 420.81 142.47 381.29L85.38 381.29C90.41 420.81 93.21 442.76 93.77 447.15C94.06 449.39 95.96 451.06 98.21 451.06C104.5 451.06 126.49 451.06 129.64 451.06Z" id="cnRExMc0u"></path><path d="M144.38 400.25L83.47 400.25L87.53 432.1L140.32 432.1L140.32 432.1L144.38 400.25Z" id="c1cIdWFjGj"></path><path d="M144.38 400.25L83.47 400.25L87.53 432.1L140.32 432.1L140.32 432.1L144.38 400.25Z" id="ah3sfexIs"></path><path d="M140.07 428.42L143.47 400.25L92.39 400.25C94.28 415.82 95.32 424.46 95.53 426.19C95.69 427.47 96.77 428.42 98.05 428.42C103.66 428.42 117.66 428.42 140.07 428.42Z" id="e3Ck7JYnFA"></path><path d="M144.38 400.25L83.47 400.25L87.53 432.1L140.32 432.1L140.32 432.1L144.38 400.25Z" id="ahuoN9mLG"></path><path d="M81.71 381.29C77.01 381.29 74.67 378.95 74.67 374.25C74.67 374.25 74.67 374.25 74.67 374.25C74.67 369.56 77.01 367.21 81.71 367.21C120.37 367.21 141.85 367.21 146.14 367.21C150.83 367.21 153.18 369.56 153.18 374.25C153.18 374.25 153.18 374.25 153.18 374.25C153.18 378.95 150.83 381.29 146.14 381.29C107.48 381.29 86 381.29 81.71 381.29Z" id="cRWW07GRu"></path><path d="M81.71 381.29C77.01 381.29 74.67 378.95 74.67 374.25C74.67 374.25 74.67 374.25 74.67 374.25C74.67 369.56 77.01 367.21 81.71 367.21C120.37 367.21 141.85 367.21 146.14 367.21C150.83 367.21 153.18 369.56 153.18 374.25C153.18 374.25 153.18 374.25 153.18 374.25C153.18 378.95 150.83 381.29 146.14 381.29C107.48 381.29 86 381.29 81.71 381.29Z" id="a3ej7iOXM"></path><path d="M88.99 378.25C85.31 378.25 83.47 376.41 83.47 372.73C83.47 372.73 83.47 372.73 83.47 372.73C83.47 369.05 85.31 367.21 88.99 367.21C124.19 367.21 143.75 367.21 147.66 367.21C151.34 367.21 153.18 369.05 153.18 372.73C153.18 372.73 153.18 372.73 153.18 372.73C153.18 376.41 151.34 378.25 147.66 378.25C112.46 378.25 92.9 378.25 88.99 378.25Z" id="kbzUbkOYy"></path><path d="M81.71 381.29C77.01 381.29 74.67 378.95 74.67 374.25C74.67 374.25 74.67 374.25 74.67 374.25C74.67 369.56 77.01 367.21 81.71 367.21C120.37 367.21 141.85 367.21 146.14 367.21C150.83 367.21 153.18 369.56 153.18 374.25C153.18 374.25 153.18 374.25 153.18 374.25C153.18 378.95 150.83 381.29 146.14 381.29C107.48 381.29 86 381.29 81.71 381.29Z" id="bjKZy181p"></path><path d="M139.52 367.22L138.51 359.54L89.34 359.54L88.32 367.22L88.32 367.22L139.52 367.22Z" id="c2anHXdH09"></path><path d="M104.36 359.54L100.8 367.22L88.32 367.22L89.34 359.54L89.34 359.54L104.36 359.54Z" id="cftiFZOFO"></path><path d="M139.52 367.22L138.51 359.54L89.34 359.54L88.32 367.22L88.32 367.22L139.52 367.22Z" id="ahpI2epFt"></path><path d="" id="am8Cap5sz"></path><path d="M461.53 451.13C461.59 440.88 469.94 432.62 480.19 432.68C490.35 432.74 498.57 440.97 498.63 451.13C491.21 451.13 468.95 451.13 461.53 451.13Z" id="croqmoLmZ"></path><path d="M494.14 439.04C487.47 431.27 475.77 430.38 468 437.05C467.29 437.66 466.63 438.32 466.01 439.04C469.58 443.05 474.71 445.32 480.08 445.27C485.45 445.32 490.58 443.05 494.14 439.04Z" id="a2BXG8DjIZ"></path><path d="M461.53 451.13C461.59 440.88 469.94 432.62 480.19 432.68C490.35 432.74 498.57 440.97 498.63 451.13C491.21 451.13 468.95 451.13 461.53 451.13Z" id="b2yxNq9Hwl"></path><path d="M337.28 319.86C340.7 319.86 342.4 321.57 342.4 324.98C342.4 370.29 342.4 395.46 342.4 400.49C342.4 403.91 340.7 405.62 337.28 405.62C278.92 405.62 246.49 405.62 240.01 405.62C236.59 405.62 234.88 403.91 234.88 400.49C234.88 355.19 234.88 330.02 234.88 324.98C234.88 321.57 236.59 319.86 240.01 319.86C298.37 319.86 330.79 319.86 337.28 319.86Z" id="b8mSwQ2Sk"></path><path d="M332.27 315.38C335.68 315.38 337.39 317.09 337.39 320.5C337.39 365.81 337.39 390.98 337.39 396.01C337.39 399.43 335.68 401.14 332.27 401.14C273.9 401.14 241.48 401.14 235 401.14C231.58 401.14 229.87 399.43 229.87 396.01C229.87 350.71 229.87 325.54 229.87 320.5C229.87 317.09 231.58 315.38 235 315.38C293.36 315.38 325.78 315.38 332.27 315.38Z" id="e2VfD2OuJ3"></path><path d="M332.27 315.38C335.68 315.38 337.39 317.09 337.39 320.5C337.39 365.81 337.39 390.98 337.39 396.01C337.39 399.43 335.68 401.14 332.27 401.14C273.9 401.14 241.48 401.14 235 401.14C231.58 401.14 229.87 399.43 229.87 396.01C229.87 350.71 229.87 325.54 229.87 320.5C229.87 317.09 231.58 315.38 235 315.38C293.36 315.38 325.78 315.38 332.27 315.38Z" id="c2QeX2bkm2"></path><path d="M332.27 315.38C335.1 315.38 337.39 317.67 337.39 320.5C337.39 320.5 337.39 320.5 337.39 320.5C337.39 321.02 337.39 323.57 337.39 328.18L229.87 328.18C229.87 323.57 229.87 321.02 229.87 320.5C229.87 317.67 232.17 315.38 235 315.38C235 315.38 322.54 315.38 332.27 315.38Z" id="cb7PcyZNy"></path><path d="M332.27 315.38C335.1 315.38 337.39 317.67 337.39 320.5C337.39 320.5 337.39 320.5 337.39 320.5C337.39 321.02 337.39 323.57 337.39 328.18L229.87 328.18C229.87 323.57 229.87 321.02 229.87 320.5C229.87 317.67 232.17 315.38 235 315.38C235 315.38 322.54 315.38 332.27 315.38Z" id="e3yJhtLtT8"></path><path d="M239.04 319.78C237.94 319.78 237.04 320.68 237.04 321.78C237.04 322.88 237.94 323.78 239.04 323.78C240.15 323.78 241.04 322.88 241.04 321.78C241.04 320.68 240.15 319.78 239.04 319.78Z" id="bk3XrEoHj"></path><path d="M245.34 319.78C244.23 319.78 243.34 320.68 243.34 321.78C243.34 322.88 244.23 323.78 245.34 323.78C246.44 323.78 247.34 322.88 247.34 321.78C247.34 320.68 246.44 319.78 245.34 319.78Z" id="d38CUbxFfB"></path><path d="M251.31 319.78C250.21 319.78 249.31 320.68 249.31 321.78C249.31 322.88 250.21 323.78 251.31 323.78C252.42 323.78 253.31 322.88 253.31 321.78C253.31 320.68 252.42 319.78 251.31 319.78Z" id="a1xa5FfvAo"></path><path d="M234.88 332.66L241.92 332.66" id="bfMJGhNqf"></path><path d="M244.48 332.66L263.68 332.66" id="aq65RGfiq"></path><path d="M234.88 337.78L263.68 337.78" id="a1QmFJYiTB"></path><path d="M240.64 342.9L254.72 342.9" id="c198hZD8rC"></path><path d="M257.28 342.9L272.64 342.9" id="gzYhJoHUM"></path><path d="M248.32 348.02L277.76 348.02" id="kIhUDqn2V"></path><path d="M248.32 353.14L270.08 353.14" id="j1pcKApxEo"></path><path d="M240.64 358.26L272.64 358.26" id="a342Fq52zG"></path><path d="M234.88 362.74L252.16 362.74" id="c1v27Yi0Wu"></path><path d="M383.77 387.53C383.77 385 382.79 383.22 380.84 382.13C379.46 381.38 378.88 380.81 378.88 379.49C378.88 379.26 378.88 377.47 378.88 377.25C378.88 375.69 379.57 375.35 380.78 374.54C382.79 373.68 383.77 371.84 383.77 369.08C383.77 368.59 383.77 364.68 383.77 364.2C383.77 360.29 385.21 357.41 387.28 356.2C388.83 355.1 390.67 354.48 392.57 354.42C392.64 354.42 393.24 354.42 393.31 354.42C394.92 354.42 395.73 355.23 395.73 356.84C395.73 357.35 395.73 357.64 395.73 357.7C395.73 359.25 394.92 360.05 393.31 360.05C391.07 360.05 389.98 361.66 389.98 364.94C389.98 365.54 389.98 370.37 389.98 370.98C390.1 373.97 388.46 376.75 385.78 378.1C385.75 378.12 385.58 378.17 385.27 378.28C385.27 378.35 385.27 378.38 385.27 378.39C385.86 378.57 386.4 378.86 386.88 379.26C388.31 380.12 389.98 382.13 389.98 385.64C389.98 386.31 389.98 391.69 389.98 392.36C389.98 395.58 391.07 397.19 393.31 397.19C394.92 397.19 395.73 398 395.73 399.61C395.73 400.12 395.73 400.41 395.73 400.47C395.73 402.08 394.92 402.88 393.31 402.88C392.87 402.88 392.62 402.88 392.57 402.88C390.67 402.83 388.83 402.2 387.28 401.1C385.21 399.89 383.77 396.96 383.77 393.11C383.77 391.99 383.77 388.65 383.77 387.53Z" id="f1zb6tJklB"></path><path d="" id="b63fKXicLy"></path><path d="M95.31 418.36C96.08 417.61 96.51 417.19 96.59 417.11C106.6 425.23 120.93 425.23 130.94 417.11C131.04 417.22 131.58 417.74 132.54 418.68" id="ctq8LFtKr"></path><path d="M109.84 411.9C109.84 410.39 108.61 409.16 107.1 409.16C107.1 409.16 107.1 409.16 107.1 409.16C105.59 409.16 104.36 410.39 104.36 411.9C104.36 412.07 104.36 412.91 104.36 414.41" id="c313uAJiX9"></path><path d="M118.01 411.9C118.01 410.39 119.23 409.16 120.75 409.16C120.75 409.16 120.75 409.16 120.75 409.16C122.26 409.16 123.49 410.39 123.49 411.9C123.49 412.07 123.49 412.91 123.49 414.41" id="a1eiwEvmGA"></path><path d="M563.61 367.93C567.49 367.93 569.43 369.87 569.43 373.75C569.43 416.68 569.43 440.53 569.43 445.3C569.43 449.19 567.49 451.13 563.61 451.13C533.74 451.13 517.14 451.13 513.82 451.13C509.94 451.13 507.99 449.19 507.99 445.3C507.99 402.37 507.99 378.52 507.99 373.75C507.99 369.87 509.94 367.93 513.82 367.93C543.69 367.93 560.29 367.93 563.61 367.93Z" id="a1bZUaIxjV"></path><path d="M562.87 367.93C562.98 368.37 563.03 368.82 563.03 369.27C563.03 376.43 563.03 433.67 563.03 440.82C563.03 444.04 560.43 446.65 557.21 446.65C557.21 446.65 557.21 446.65 557.21 446.65C552.31 446.65 513.07 446.65 508.16 446.65C508.78 449.27 511.13 451.12 513.82 451.13C518.8 451.13 558.63 451.13 563.61 451.13C566.83 451.13 569.44 448.52 569.44 445.3C569.44 445.3 569.44 445.3 569.44 445.3C569.44 438.15 569.44 380.91 569.44 373.75C569.44 370.53 566.83 367.93 563.61 367.93C563.61 367.93 563.61 367.93 563.61 367.93C563.61 367.93 562.95 367.93 562.87 367.93Z" id="b4dVa4sajK"></path><path d="M563.61 367.93C567.49 367.93 569.43 369.87 569.43 373.75C569.43 416.68 569.43 440.53 569.43 445.3C569.43 449.19 567.49 451.13 563.61 451.13C533.74 451.13 517.14 451.13 513.82 451.13C509.94 451.13 507.99 449.19 507.99 445.3C507.99 402.37 507.99 378.52 507.99 373.75C507.99 369.87 509.94 367.93 513.82 367.93C543.69 367.93 560.29 367.93 563.61 367.93Z" id="a1cHwt7pY4"></path><path d="M543.83 363.1C543.83 361.95 543.83 361.31 543.83 361.18C543.83 358.35 541.54 356.06 538.71 356.06C535.89 356.06 533.59 358.35 533.59 361.18C533.59 361.31 533.59 361.95 533.59 363.1C530.52 363.1 528.82 363.1 528.47 363.1C525.65 363.1 523.35 365.39 523.35 368.22C523.35 371.05 525.65 373.34 528.47 373.34C530.52 373.34 546.91 373.34 548.95 373.34C551.78 373.34 554.07 371.05 554.07 368.22C554.07 365.39 551.78 363.1 548.95 363.1C548.27 363.1 546.56 363.1 543.83 363.1Z" id="c32TyTZdNp"></path><path d="M547.76 369.96C547.31 370.08 546.86 370.14 546.39 370.14C544.35 370.14 527.96 370.14 525.91 370.14C525.09 370.14 524.27 369.94 523.54 369.55C524.14 371.78 526.16 373.34 528.47 373.34C530.52 373.34 546.91 373.34 548.95 373.34C551.78 373.34 554.07 371.04 554.07 368.21C554.07 366.31 553.01 364.57 551.33 363.69C552.08 366.41 550.48 369.21 547.76 369.96Z" id="c1HfWv1ekM"></path><path d="M541.27 359.9C542.71 359.9 543.51 359.9 543.67 359.9C543.31 358.5 542.37 357.32 541.09 356.65C541.21 357.08 541.27 357.53 541.27 357.98C541.27 358.23 541.27 358.87 541.27 359.9Z" id="bPVXYsVq7"></path><path d="M543.83 363.1C543.83 361.95 543.83 361.31 543.83 361.18C543.83 358.35 541.54 356.06 538.71 356.06C535.89 356.06 533.59 358.35 533.59 361.18C533.59 361.31 533.59 361.95 533.59 363.1C530.52 363.1 528.82 363.1 528.47 363.1C525.65 363.1 523.35 365.39 523.35 368.22C523.35 371.05 525.65 373.34 528.47 373.34C530.52 373.34 546.91 373.34 548.95 373.34C551.78 373.34 554.07 371.05 554.07 368.22C554.07 365.39 551.78 363.1 548.95 363.1C548.27 363.1 546.56 363.1 543.83 363.1Z" id="aiDBnR7bf"></path><path d="M538.71 381.23C535.77 381.23 533.38 383.62 533.38 386.57C533.38 389.51 535.77 391.9 538.71 391.9C541.66 391.9 544.05 389.51 544.05 386.57C544.05 383.62 541.66 381.23 538.71 381.23Z" id="g27J7D1a4R"></path><path d="M538.71 381.23C535.77 381.23 533.38 383.62 533.38 386.57C533.38 389.51 535.77 391.9 538.71 391.9C541.66 391.9 544.05 389.51 544.05 386.57C544.05 383.62 541.66 381.23 538.71 381.23Z" id="a1pTmT7IiA"></path><path d="M518.38 402.99L531.18 402.99" id="c7oAYPPeY4"></path><path d="M518.38 420.38L531.18 420.38" id="a2L4lun7I"></path><path d="M518.38 437.77L531.18 437.77" id="b1VozY6rSZ"></path><path d="M539.63 402.31L542.97 406.75L552.96 399.24" id="b1H67GLB1P"></path><path d="M539.63 419.69L542.97 424.13L552.96 416.63" id="g2MvgzDrVh"></path><path d="M575.77 403.54C575.77 403.54 575.77 403.54 575.77 403.54C579.16 427.88 581.04 441.4 581.42 444.11C581.42 444.11 581.42 444.11 581.42 444.11C577.61 444.64 575.5 444.93 575.08 444.99C575.08 444.99 575.08 444.99 575.08 444.99C571.69 420.65 569.81 407.13 569.43 404.42C569.43 404.42 569.43 404.42 569.43 404.42C573.24 403.89 575.35 403.6 575.77 403.54Z" id="g66Fk8iadQ"></path><path d="M575.77 403.54C575.77 403.54 575.77 403.54 575.77 403.54C579.16 427.88 581.04 441.4 581.42 444.11C581.42 444.11 581.42 444.11 581.42 444.11C577.61 444.64 575.5 444.93 575.08 444.99C575.08 444.99 575.08 444.99 575.08 444.99C571.69 420.65 569.81 407.13 569.43 404.42C569.43 404.42 569.43 404.42 569.43 404.42C573.24 403.89 575.35 403.6 575.77 403.54Z" id="atUR4o8mu"></path><path d="M575.08 444.99L579.13 450.89L581.42 444.11L581.42 444.11L575.08 444.99Z" id="e1qgvvVlhe"></path><path d="M575.08 444.99L579.13 450.89L581.42 444.11L581.42 444.11L575.08 444.99Z" id="d1n7XdwRuK"></path><path d="M573.43 397.1C573.43 397.1 573.43 397.1 573.43 397.1C573.96 400.9 574.26 403.01 574.31 403.43C574.31 403.43 574.31 403.43 574.31 403.43C572.03 403.75 570.77 403.93 570.51 403.96C570.51 403.96 570.51 403.96 570.51 403.96C569.98 400.16 569.69 398.05 569.63 397.63C569.63 397.63 569.63 397.63 569.63 397.63C571.91 397.31 573.18 397.13 573.43 397.1Z" id="dYDRgclwx"></path><path d="M573.43 397.1C573.43 397.1 573.43 397.1 573.43 397.1C573.96 400.9 574.26 403.01 574.31 403.43C574.31 403.43 574.31 403.43 574.31 403.43C572.03 403.75 570.77 403.93 570.51 403.96C570.51 403.96 570.51 403.96 570.51 403.96C569.98 400.16 569.69 398.05 569.63 397.63C569.63 397.63 569.63 397.63 569.63 397.63C571.91 397.31 573.18 397.13 573.43 397.1Z" id="dwJTyRNPp"></path><path d="M581.5 419.55C580.79 418.37 580.28 417.07 580 415.72C579.29 412.24 581.04 410.25 580.1 408.28C579.72 407.49 579.54 406.41 576.71 406" id="h3xTil5yLJ"></path><path d="M589.28 451.13L605.76 451.13" id="c2pjkBhFpj"></path><path d="M149.97 451.13L582.08 451.13" id="b3wHt1nE8O"></path><path d="M73.44 451.13L142.47 451.13" id="j1CdAD2zfU"></path><path d="M51.41 451.13L66.24 451.13" id="c1Dxdahm7a"></path><path d="M323.2 114.93C314.72 114.93 307.84 121.81 307.84 130.29C307.84 138.78 314.72 145.65 323.2 145.65C331.69 145.65 338.56 138.78 338.56 130.29C338.56 121.81 331.69 114.93 323.2 114.93Z" id="d2AZTFqDkG"></path><path d="M279.11 133.76C276.06 133.75 273.59 131.27 273.6 128.22C273.61 128 273.62 127.78 273.65 127.56C276.63 102.21 297.68 82.56 323.2 82.56C348.73 82.56 369.78 102.21 372.76 127.56C373.14 130.58 370.99 133.34 367.96 133.72C367.74 133.75 367.52 133.76 367.3 133.76C349.66 133.76 296.75 133.76 279.11 133.76Z" id="a1cYbhO1Aq"></path><path d="M330.88 83.16C330.72 83.14 330.55 83.12 330.39 83.1C329.8 83.01 329.22 82.93 328.63 82.87C328.36 82.84 328.1 82.81 327.83 82.79C327.34 82.74 326.85 82.7 326.36 82.67C326.08 82.65 325.8 82.63 325.51 82.62C324.75 82.58 323.98 82.56 323.21 82.56C322.44 82.56 321.67 82.58 320.91 82.62C320.56 82.64 320.21 82.66 319.86 82.69C319.48 82.71 319.11 82.74 318.73 82.78C318.27 82.82 317.81 82.87 317.35 82.92C317.13 82.95 316.91 82.98 316.69 83.01C293.63 86.1 275.52 105.3 273.48 129.25C273.28 131.53 274.96 133.54 277.24 133.74C277.36 133.75 277.48 133.76 277.6 133.76C286.72 133.76 359.69 133.76 368.81 133.76C371.09 133.77 372.94 131.92 372.95 129.64C372.95 129.54 372.95 129.43 372.94 129.32C370.96 105.74 353.41 86.73 330.88 83.16C330.88 83.16 330.88 83.16 330.88 83.16ZM322.73 85.2C338.47 90.7 350.5 103.57 354.92 119.63C355.91 123.31 353.74 127.09 350.07 128.08C349.48 128.24 348.86 128.32 348.25 128.32C343.15 128.32 302.35 128.32 297.25 128.32C293.45 128.33 290.35 125.26 290.34 121.46C290.34 120.84 290.42 120.23 290.58 119.63C295 103.58 307.02 90.71 322.73 85.2Z" id="a7nI4UO5bT"></path><path d="M278.19 133.76C275.12 133.75 272.64 131.25 272.64 128.18C272.65 127.96 272.66 127.74 272.69 127.51C275.69 102.18 296.73 82.56 322.24 82.56C347.75 82.56 368.79 102.18 371.79 127.51C372.17 130.56 370.01 133.34 366.96 133.72C366.74 133.75 366.51 133.76 366.29 133.76C348.67 133.76 295.81 133.76 278.19 133.76Z" id="dNqs4QOVZ"></path><path d="M323.2 0L323.2 82.56" id="awPIg3OWK"></path></defs><g><g><g><use xlink:href="#b2zkYnB7VE" opacity="1" fill="url(#gradientb34GH8ijOW)"></use><g><use xlink:href="#b2zkYnB7VE" opacity="1" fill-opacity="0" stroke="#000000" stroke-width="1" stroke-opacity="0"></use></g></g><g><use xlink:href="#aGFFiH9D1" opacity="1" fill="#000000" fill-opacity="0"></use><g><use xlink:href="#aGFFiH9D1" opacity="1" fill-opacity="0" stroke="#212728" stroke-width="6" stroke-opacity="1"></use></g></g><g><use xlink:href="#a3XRGY7Tjp" opacity="1" fill="#000000" fill-opacity="0"></use><g><use xlink:href="#a3XRGY7Tjp" opacity="1" fill-opacity="0" stroke="#212728" stroke-width="6" stroke-opacity="1"></use></g></g><g><use xlink:href="#a8Oajx0QWC" opacity="1" fill="#000000" fill-opacity="0"></use><g><use xlink:href="#a8Oajx0QWC" opacity="1" fill-opacity="0" stroke="#283035" stroke-width="8" stroke-opacity="1"></use></g></g><g><use xlink:href="#a15l8uHvm" opacity="1" fill="#d2dce6" fill-opacity="1"></use><g><use xlink:href="#a15l8uHvm" opacity="1" fill-opacity="0" stroke="#000000" stroke-width="1" stroke-opacity="0"></use></g></g><g><use xlink:href="#a1yMMNXBxx" opacity="1" fill="#000000" fill-opacity="0"></use><g><use xlink:href="#a1yMMNXBxx" opacity="1" fill-opacity="0" stroke="#283035" stroke-width="6" stroke-opacity="1"></use></g></g><g><use xlink:href="#e1miLCKxX" opacity="1" fill="#ff5c5c" fill-opacity="1"></use><g><use xlink:href="#e1miLCKxX" opacity="1" fill-opacity="0" stroke="#000000" stroke-width="1" stroke-opacity="0"></use></g></g><g><use xlink:href="#n56xOC0hsE" opacity="1" fill="#ffffff" fill-opacity="1"></use><g><use xlink:href="#n56xOC0hsE" opacity="1" fill-opacity="0" stroke="#ffffff" stroke-width="6" stroke-opacity="1"></use></g></g><g><use xlink:href="#d1iSrpBGZN" opacity="1" fill="#ffffff" fill-opacity="1"></use><g><use xlink:href="#d1iSrpBGZN" opacity="1" fill-opacity="0" stroke="#000000" stroke-width="1" stroke-opacity="0"></use></g></g><g><use xlink:href="#a1LL9uyMbD" opacity="1" fill="#ffffff" fill-opacity="1"></use><g><use xlink:href="#a1LL9uyMbD" opacity="1" fill-opacity="0" stroke="#000000" stroke-width="1" stroke-opacity="0"></use></g></g><g><use xlink:href="#aQdTEOkHu" opacity="1" fill="#000000" fill-opacity="0"></use><g><use xlink:href="#aQdTEOkHu" opacity="1" fill-opacity="0" stroke="#283035" stroke-width="6" stroke-opacity="1"></use></g></g><g><use xlink:href="#bXY7biye" opacity="1" fill="#e5e5e5" fill-opacity="1"></use><g><use xlink:href="#bXY7biye" opacity="1" fill-opacity="0" stroke="#000000" stroke-width="1" stroke-opacity="0"></use></g></g><g><use xlink:href="#ca5CiwCuw" opacity="1" fill="#cfd1d0" fill-opacity="1"></use><g><use xlink:href="#ca5CiwCuw" opacity="1" fill-opacity="0" stroke="#000000" stroke-width="1" stroke-opacity="0"></use></g></g><g><use xlink:href="#i3AbLIeM3l" opacity="1" fill="#000000" fill-opacity="0"></use><g><use xlink:href="#i3AbLIeM3l" opacity="1" fill-opacity="0" stroke="#283035" stroke-width="6" stroke-opacity="1"></use></g></g><g><use xlink:href="#a3Mj8TIXUw" opacity="1" fill="#686b6d" fill-opacity="1"></use><g><use xlink:href="#a3Mj8TIXUw" opacity="1" fill-opacity="0" stroke="#000000" stroke-width="1" stroke-opacity="0"></use></g></g><g><use xlink:href="#b5vLOUxN9" opacity="1" fill="#000000" fill-opacity="0"></use><g><use xlink:href="#b5vLOUxN9" opacity="1" fill-opacity="0" stroke="#283035" stroke-width="4" stroke-opacity="1"></use></g></g><g><use xlink:href="#bfBoTXUl" opacity="1" fill="#686b6d" fill-opacity="1"></use><g><use xlink:href="#bfBoTXUl" opacity="1" fill-opacity="0" stroke="#000000" stroke-width="1" stroke-opacity="0"></use></g></g><g><use xlink:href="#a3KckbKfFw" opacity="1" fill="#000000" fill-opacity="0"></use><g><use xlink:href="#a3KckbKfFw" opacity="1" fill-opacity="0" stroke="#283035" stroke-width="4" stroke-opacity="1"></use></g></g><g><use xlink:href="#b1cp1k9YX2" opacity="1" fill="#ead57d" fill-opacity="1"></use><g><use xlink:href="#b1cp1k9YX2" opacity="1" fill-opacity="0" stroke="#000000" stroke-width="1" stroke-opacity="0"></use></g></g><g><use xlink:href="#d13AJrNRZK" opacity="1" fill="#e5c66e" fill-opacity="1"></use><g><use xlink:href="#d13AJrNRZK" opacity="1" fill-opacity="0" stroke="#000000" stroke-width="1" stroke-opacity="0"></use></g></g><g><use xlink:href="#cnRExMc0u" opacity="1" fill="#000000" fill-opacity="0"></use><g><use xlink:href="#cnRExMc0u" opacity="1" fill-opacity="0" stroke="#283035" stroke-width="6" stroke-opacity="1"></use></g></g><g><use xlink:href="#c1cIdWFjGj" opacity="1" fill="#5cbf84" fill-opacity="1"></use><g><use xlink:href="#c1cIdWFjGj" opacity="1" fill-opacity="0" stroke="#000000" stroke-width="1" stroke-opacity="0"></use></g></g><g><use xlink:href="#ah3sfexIs" opacity="1" fill="#4fb277" fill-opacity="1"></use><g><use xlink:href="#ah3sfexIs" opacity="1" fill-opacity="0" stroke="#000000" stroke-width="1" stroke-opacity="0"></use></g></g><g><use xlink:href="#e3Ck7JYnFA" opacity="1" fill="#5cbf84" fill-opacity="1"></use><g><use xlink:href="#e3Ck7JYnFA" opacity="1" fill-opacity="0" stroke="#000000" stroke-width="1" stroke-opacity="0"></use></g></g><g><use xlink:href="#ahuoN9mLG" opacity="1" fill="#000000" fill-opacity="0"></use><g><use xlink:href="#ahuoN9mLG" opacity="1" fill-opacity="0" stroke="#283035" stroke-width="6" stroke-opacity="1"></use></g></g><g><use xlink:href="#cRWW07GRu" opacity="1" fill="#5cbf84" fill-opacity="1"></use><g><use xlink:href="#cRWW07GRu" opacity="1" fill-opacity="0" stroke="#000000" stroke-width="1" stroke-opacity="0"></use></g></g><g><use xlink:href="#a3ej7iOXM" opacity="1" fill="#4fb277" fill-opacity="1"></use><g><use xlink:href="#a3ej7iOXM" opacity="1" fill-opacity="0" stroke="#000000" stroke-width="1" stroke-opacity="0"></use></g></g><g><use xlink:href="#kbzUbkOYy" opacity="1" fill="#5cbf84" fill-opacity="1"></use><g><use xlink:href="#kbzUbkOYy" opacity="1" fill-opacity="0" stroke="#000000" stroke-width="1" stroke-opacity="0"></use></g></g><g><use xlink:href="#bjKZy181p" opacity="1" fill="#000000" fill-opacity="0"></use><g><use xlink:href="#bjKZy181p" opacity="1" fill-opacity="0" stroke="#283035" stroke-width="6" stroke-opacity="1"></use></g></g><g><use xlink:href="#c2anHXdH09" opacity="1" fill="#5cbf84" fill-opacity="1"></use><g><use xlink:href="#c2anHXdH09" opacity="1" fill-opacity="0" stroke="#000000" stroke-width="1" stroke-opacity="0"></use></g></g><g><use xlink:href="#cftiFZOFO" opacity="1" fill="#54af79" fill-opacity="1"></use><g><use xlink:href="#cftiFZOFO" opacity="1" fill-opacity="0" stroke="#000000" stroke-width="1" stroke-opacity="0"></use></g></g><g><use xlink:href="#ahpI2epFt" opacity="1" fill="#000000" fill-opacity="0"></use><g><use xlink:href="#ahpI2epFt" opacity="1" fill-opacity="0" stroke="#283035" stroke-width="6" stroke-opacity="1"></use></g></g><g><use xlink:href="#am8Cap5sz" opacity="1" fill="#000000" fill-opacity="0"></use><g><use xlink:href="#am8Cap5sz" opacity="1" fill-opacity="0" stroke="#212728" stroke-width="6" stroke-opacity="1"></use></g></g><g><use xlink:href="#croqmoLmZ" opacity="1" fill="#e5e5e5" fill-opacity="1"></use><g><use xlink:href="#croqmoLmZ" opacity="1" fill-opacity="0" stroke="#000000" stroke-width="1" stroke-opacity="0"></use></g></g><g><use xlink:href="#a2BXG8DjIZ" opacity="1" fill="#cfd1d0" fill-opacity="1"></use><g><use xlink:href="#a2BXG8DjIZ" opacity="1" fill-opacity="0" stroke="#000000" stroke-width="1" stroke-opacity="0"></use></g></g><g><use xlink:href="#b2yxNq9Hwl" opacity="1" fill="#000000" fill-opacity="0"></use><g><use xlink:href="#b2yxNq9Hwl" opacity="1" fill-opacity="0" stroke="#283035" stroke-width="6" stroke-opacity="1"></use></g></g><g><use xlink:href="#b8mSwQ2Sk" opacity="1" fill="#000000" fill-opacity="1"></use><g><use xlink:href="#b8mSwQ2Sk" opacity="1" fill-opacity="0" stroke="#000000" stroke-width="1" stroke-opacity="0"></use></g></g><g><use xlink:href="#e2VfD2OuJ3" opacity="1" fill="#353f49" fill-opacity="1"></use><g><use xlink:href="#e2VfD2OuJ3" opacity="1" fill-opacity="0" stroke="#000000" stroke-width="1" stroke-opacity="0"></use></g></g><g><use xlink:href="#c2QeX2bkm2" opacity="1" fill="#000000" fill-opacity="0"></use><g><use xlink:href="#c2QeX2bkm2" opacity="1" fill-opacity="0" stroke="#283035" stroke-width="4" stroke-opacity="1"></use></g></g><g><use xlink:href="#cb7PcyZNy" opacity="1" fill="#eaeeef" fill-opacity="1"></use><g><use xlink:href="#cb7PcyZNy" opacity="1" fill-opacity="0" stroke="#000000" stroke-width="1" stroke-opacity="0"></use></g></g><g><use xlink:href="#e3yJhtLtT8" opacity="1" fill="#000000" fill-opacity="0"></use><g><use xlink:href="#e3yJhtLtT8" opacity="1" fill-opacity="0" stroke="#283035" stroke-width="4" stroke-opacity="1"></use></g></g><g><use xlink:href="#bk3XrEoHj" opacity="1" fill="#283035" fill-opacity="1"></use><g><use xlink:href="#bk3XrEoHj" opacity="1" fill-opacity="0" stroke="#000000" stroke-width="1" stroke-opacity="0"></use></g></g><g><use xlink:href="#d38CUbxFfB" opacity="1" fill="#283035" fill-opacity="1"></use><g><use xlink:href="#d38CUbxFfB" opacity="1" fill-opacity="0" stroke="#000000" stroke-width="1" stroke-opacity="0"></use></g></g><g><use xlink:href="#a1xa5FfvAo" opacity="1" fill="#283035" fill-opacity="1"></use><g><use xlink:href="#a1xa5FfvAo" opacity="1" fill-opacity="0" stroke="#000000" stroke-width="1" stroke-opacity="0"></use></g></g><g><use xlink:href="#bfMJGhNqf" opacity="1" fill="#000000" fill-opacity="0"></use><g><use xlink:href="#bfMJGhNqf" opacity="1" fill-opacity="0" stroke="#46bb86" stroke-width="3" stroke-opacity="1"></use></g></g><g><use xlink:href="#aq65RGfiq" opacity="1" fill="#000000" fill-opacity="0"></use><g><use xlink:href="#aq65RGfiq" opacity="1" fill-opacity="0" stroke="#46bb86" stroke-width="3" stroke-opacity="1"></use></g></g><g><use xlink:href="#a1QmFJYiTB" opacity="1" fill="#000000" fill-opacity="0"></use><g><use xlink:href="#a1QmFJYiTB" opacity="1" fill-opacity="0" stroke="#389abe" stroke-width="3" stroke-opacity="1"></use></g></g><g><use xlink:href="#c198hZD8rC" opacity="1" fill="#000000" fill-opacity="0"></use><g><use xlink:href="#c198hZD8rC" opacity="1" fill-opacity="0" stroke="#e5c689" stroke-width="3" stroke-opacity="1"></use></g></g><g><use xlink:href="#gzYhJoHUM" opacity="1" fill="#000000" fill-opacity="0"></use><g><use xlink:href="#gzYhJoHUM" opacity="1" fill-opacity="0" stroke="#f2f3f4" stroke-width="3" stroke-opacity="1"></use></g></g><g><use xlink:href="#kIhUDqn2V" opacity="1" fill="#000000" fill-opacity="0"></use><g><use xlink:href="#kIhUDqn2V" opacity="1" fill-opacity="0" stroke="#f2f3f4" stroke-width="3" stroke-opacity="1"></use></g></g><g><use xlink:href="#j1pcKApxEo" opacity="1" fill="#000000" fill-opacity="0"></use><g><use xlink:href="#j1pcKApxEo" opacity="1" fill-opacity="0" stroke="#ffa49f" stroke-width="3" stroke-opacity="1"></use></g></g><g><use xlink:href="#a342Fq52zG" opacity="1" fill="#000000" fill-opacity="0"></use><g><use xlink:href="#a342Fq52zG" opacity="1" fill-opacity="0" stroke="#f2f3f4" stroke-width="3" stroke-opacity="1"></use></g></g><g><use xlink:href="#c1v27Yi0Wu" opacity="1" fill="#000000" fill-opacity="0"></use><g><use xlink:href="#c1v27Yi0Wu" opacity="1" fill-opacity="0" stroke="#389abe" stroke-width="3" stroke-opacity="1"></use></g></g><g><use xlink:href="#f1zb6tJklB" opacity="1" fill="#ffffff" fill-opacity="1"></use><g><use xlink:href="#f1zb6tJklB" opacity="1" fill-opacity="0" stroke="#000000" stroke-width="1" stroke-opacity="0"></use></g></g><g><use xlink:href="#b63fKXicLy" opacity="1" fill="#000000" fill-opacity="0"></use><g><use xlink:href="#b63fKXicLy" opacity="1" fill-opacity="0" stroke="#212728" stroke-width="1" stroke-opacity="1"></use></g></g><g><use xlink:href="#ctq8LFtKr" opacity="1" fill="#000000" fill-opacity="0"></use><g><use xlink:href="#ctq8LFtKr" opacity="1" fill-opacity="0" stroke="#283035" stroke-width="3" stroke-opacity="1"></use></g></g><g><use xlink:href="#c313uAJiX9" opacity="1" fill="#000000" fill-opacity="0"></use><g><use xlink:href="#c313uAJiX9" opacity="1" fill-opacity="0" stroke="#283035" stroke-width="3" stroke-opacity="1"></use></g></g><g><use xlink:href="#a1eiwEvmGA" opacity="1" fill="#000000" fill-opacity="0"></use><g><use xlink:href="#a1eiwEvmGA" opacity="1" fill-opacity="0" stroke="#283035" stroke-width="3" stroke-opacity="1"></use></g></g><g><use xlink:href="#a1bZUaIxjV" opacity="1" fill="#e5e5e5" fill-opacity="1"></use><g><use xlink:href="#a1bZUaIxjV" opacity="1" fill-opacity="0" stroke="#000000" stroke-width="1" stroke-opacity="0"></use></g></g><g><use xlink:href="#b4dVa4sajK" opacity="1" fill="#cfd1d0" fill-opacity="1"></use><g><use xlink:href="#b4dVa4sajK" opacity="1" fill-opacity="0" stroke="#000000" stroke-width="1" stroke-opacity="0"></use></g></g><g><use xlink:href="#a1cHwt7pY4" opacity="1" fill="#000000" fill-opacity="0"></use><g><use xlink:href="#a1cHwt7pY4" opacity="1" fill-opacity="0" stroke="#283035" stroke-width="6" stroke-opacity="1"></use></g></g><g><use xlink:href="#c32TyTZdNp" opacity="1" fill="#f7b66f" fill-opacity="1"></use><g><use xlink:href="#c32TyTZdNp" opacity="1" fill-opacity="0" stroke="#000000" stroke-width="1" stroke-opacity="0"></use></g></g><g><use xlink:href="#c1HfWv1ekM" opacity="1" fill="#eda762" fill-opacity="1"></use><g><use xlink:href="#c1HfWv1ekM" opacity="1" fill-opacity="0" stroke="#000000" stroke-width="1" stroke-opacity="0"></use></g></g><g><use xlink:href="#bPVXYsVq7" opacity="1" fill="#eda762" fill-opacity="1"></use><g><use xlink:href="#bPVXYsVq7" opacity="1" fill-opacity="0" stroke="#000000" stroke-width="1" stroke-opacity="0"></use></g></g><g><use xlink:href="#aiDBnR7bf" opacity="1" fill="#000000" fill-opacity="0"></use><g><use xlink:href="#aiDBnR7bf" opacity="1" fill-opacity="0" stroke="#283035" stroke-width="6" stroke-opacity="1"></use></g></g><g><use xlink:href="#g27J7D1a4R" opacity="1" fill="#8eafbf" fill-opacity="1"></use><g><use xlink:href="#g27J7D1a4R" opacity="1" fill-opacity="0" stroke="#000000" stroke-width="1" stroke-opacity="0"></use></g></g><g><use xlink:href="#a1pTmT7IiA" opacity="1" fill="#000000" fill-opacity="0"></use><g><use xlink:href="#a1pTmT7IiA" opacity="1" fill-opacity="0" stroke="#283035" stroke-width="6" stroke-opacity="1"></use></g></g><g><use xlink:href="#c7oAYPPeY4" opacity="1" fill="#000000" fill-opacity="0"></use><g><use xlink:href="#c7oAYPPeY4" opacity="1" fill-opacity="0" stroke="#283035" stroke-width="6" stroke-opacity="1"></use></g></g><g><use xlink:href="#a2L4lun7I" opacity="1" fill="#000000" fill-opacity="0"></use><g><use xlink:href="#a2L4lun7I" opacity="1" fill-opacity="0" stroke="#283035" stroke-width="6" stroke-opacity="1"></use></g></g><g><use xlink:href="#b1VozY6rSZ" opacity="1" fill="#000000" fill-opacity="0"></use><g><use xlink:href="#b1VozY6rSZ" opacity="1" fill-opacity="0" stroke="#283035" stroke-width="6" stroke-opacity="1"></use></g></g><g><use xlink:href="#b1H67GLB1P" opacity="1" fill="#000000" fill-opacity="0"></use><g><use xlink:href="#b1H67GLB1P" opacity="1" fill-opacity="0" stroke="#8bafc1" stroke-width="4" stroke-opacity="1"></use></g></g><g><use xlink:href="#g2MvgzDrVh" opacity="1" fill="#000000" fill-opacity="0"></use><g><use xlink:href="#g2MvgzDrVh" opacity="1" fill-opacity="0" stroke="#8bafc1" stroke-width="4" stroke-opacity="1"></use></g></g><g><use xlink:href="#g66Fk8iadQ" opacity="1" fill="#3bbc88" fill-opacity="1"></use><g><use xlink:href="#g66Fk8iadQ" opacity="1" fill-opacity="0" stroke="#000000" stroke-width="1" stroke-opacity="0"></use></g></g><g><use xlink:href="#atUR4o8mu" opacity="1" fill="#000000" fill-opacity="0"></use><g><use xlink:href="#atUR4o8mu" opacity="1" fill-opacity="0" stroke="#283035" stroke-width="4" stroke-opacity="1"></use></g></g><g><use xlink:href="#e1qgvvVlhe" opacity="1" fill="#e5e5e5" fill-opacity="1"></use><g><use xlink:href="#e1qgvvVlhe" opacity="1" fill-opacity="0" stroke="#000000" stroke-width="1" stroke-opacity="0"></use></g></g><g><use xlink:href="#d1n7XdwRuK" opacity="1" fill="#000000" fill-opacity="0"></use><g><use xlink:href="#d1n7XdwRuK" opacity="1" fill-opacity="0" stroke="#283035" stroke-width="4" stroke-opacity="1"></use></g></g><g><use xlink:href="#dYDRgclwx" opacity="1" fill="#e5e5e5" fill-opacity="1"></use><g><use xlink:href="#dYDRgclwx" opacity="1" fill-opacity="0" stroke="#000000" stroke-width="1" stroke-opacity="0"></use></g></g><g><use xlink:href="#dwJTyRNPp" opacity="1" fill="#000000" fill-opacity="0"></use><g><use xlink:href="#dwJTyRNPp" opacity="1" fill-opacity="0" stroke="#283035" stroke-width="4" stroke-opacity="1"></use></g></g><g><use xlink:href="#h3xTil5yLJ" opacity="1" fill="#000000" fill-opacity="0"></use><g><use xlink:href="#h3xTil5yLJ" opacity="1" fill-opacity="0" stroke="#283035" stroke-width="4" stroke-opacity="1"></use></g></g><g><use xlink:href="#c2pjkBhFpj" opacity="1" fill="#000000" fill-opacity="0"></use><g><use xlink:href="#c2pjkBhFpj" opacity="1" fill-opacity="0" stroke="#283035" stroke-width="6" stroke-opacity="1"></use></g></g><g><use xlink:href="#b3wHt1nE8O" opacity="1" fill="#000000" fill-opacity="0"></use><g><use xlink:href="#b3wHt1nE8O" opacity="1" fill-opacity="0" stroke="#283035" stroke-width="6" stroke-opacity="1"></use></g></g><g><use xlink:href="#j1CdAD2zfU" opacity="1" fill="#000000" fill-opacity="0"></use><g><use xlink:href="#j1CdAD2zfU" opacity="1" fill-opacity="0" stroke="#283035" stroke-width="6" stroke-opacity="1"></use></g></g><g><use xlink:href="#c1Dxdahm7a" opacity="1" fill="#000000" fill-opacity="0"></use><g><use xlink:href="#c1Dxdahm7a" opacity="1" fill-opacity="0" stroke="#283035" stroke-width="6" stroke-opacity="1"></use></g></g><g><use xlink:href="#d2AZTFqDkG" opacity="1" fill="#ffffff" fill-opacity="1"></use><g><use xlink:href="#d2AZTFqDkG" opacity="1" fill-opacity="0" stroke="#000000" stroke-width="1" stroke-opacity="0"></use></g></g><g><use xlink:href="#a1cYbhO1Aq" opacity="1" fill="#f7b66f" fill-opacity="1"></use><g><use xlink:href="#a1cYbhO1Aq" opacity="1" fill-opacity="0" stroke="#000000" stroke-width="1" stroke-opacity="0"></use></g></g><g><use xlink:href="#a7nI4UO5bT" opacity="1" fill="#efaa65" fill-opacity="1"></use><g><use xlink:href="#a7nI4UO5bT" opacity="1" fill-opacity="0" stroke="#000000" stroke-width="1" stroke-opacity="0"></use></g></g><g><use xlink:href="#dNqs4QOVZ" opacity="1" fill="#000000" fill-opacity="0"></use><g><use xlink:href="#dNqs4QOVZ" opacity="1" fill-opacity="0" stroke="#283035" stroke-width="6" stroke-opacity="1"></use></g></g><g><use xlink:href="#awPIg3OWK" opacity="1" fill="#000000" fill-opacity="0"></use><g><use xlink:href="#awPIg3OWK" opacity="1" fill-opacity="0" stroke="#283035" stroke-width="6" stroke-opacity="1"></use></g></g></g></g></svg>