<?xml version="1.0" encoding="UTF-8" standalone="no"?>
<!DOCTYPE svg PUBLIC "-//W3C//DTD SVG 1.1//EN" "http://www.w3.org/Graphics/SVG/1.1/DTD/svg11.dtd">
<svg version="1.1" xmlns="http://www.w3.org/2000/svg" xmlns:xlink="http://www.w3.org/1999/xlink" preserveAspectRatio="xMidYMid meet" viewBox="0 0 640 640"><defs><path d="M0 320C12.8 325.68 19.91 328.84 21.33 329.47C42.67 339.11 85.33 357.78 128 355.56C170.67 353.33 213.33 329.33 256 329.47C298.67 329.33 341.33 353.33 384 367.42C426.67 381.78 469.33 386.22 512 369.78C554.67 353.33 597.33 315.11 618.67 296.31C620.09 295.05 627.2 288.72 640 277.33L640 248.89C627.2 248.89 620.09 248.89 618.67 248.89C597.33 248.89 554.67 248.89 512 248.89C469.33 248.89 426.67 248.89 384 248.89C341.33 248.89 298.67 248.89 256 248.89C213.33 248.89 170.67 248.89 128 248.89C85.33 248.89 42.67 248.89 21.33 248.89C19.91 248.89 12.8 248.89 0 248.89L0 320Z" id="a1RNlwEdU5"></path><path d="M0 305.78C12.8 302.92 19.91 301.34 21.33 301.02C42.67 296.44 85.33 286.67 128 291.56C170.67 296.44 213.33 315.11 256 327.11C298.67 339.11 341.33 343.56 384 336.58C426.67 329.33 469.33 310.67 512 312.89C554.67 315.11 597.33 339.11 618.67 350.8C620.09 351.59 627.2 355.55 640 362.67L640 248.89C627.2 248.89 620.09 248.89 618.67 248.89C597.33 248.89 554.67 248.89 512 248.89C469.33 248.89 426.67 248.89 384 248.89C341.33 248.89 298.67 248.89 256 248.89C213.33 248.89 170.67 248.89 128 248.89C85.33 248.89 42.67 248.89 21.33 248.89C19.91 248.89 12.8 248.89 0 248.89L0 305.78Z" id="d47VtjKCHs"></path><path d="M0 305.78C12.8 302.92 19.91 301.34 21.33 301.02C42.67 296.44 85.33 286.67 128 282.09C170.67 277.33 213.33 277.33 256 274.98C298.67 272.44 341.33 268 384 272.58C426.67 277.33 469.33 291.56 512 293.91C554.67 296.44 597.33 286.67 618.67 282.09C620.09 281.77 627.2 280.19 640 277.33L640 248.89C627.2 248.89 620.09 248.89 618.67 248.89C597.33 248.89 554.67 248.89 512 248.89C469.33 248.89 426.67 248.89 384 248.89C341.33 248.89 298.67 248.89 256 248.89C213.33 248.89 170.67 248.89 128 248.89C85.33 248.89 42.67 248.89 21.33 248.89C19.91 248.89 12.8 248.89 0 248.89L0 305.78Z" id="erp3UgsQ"></path></defs><g><g><g><use xlink:href="#a1RNlwEdU5" opacity="1" fill="#3d5af1" fill-opacity="0.2"></use><g><use xlink:href="#a1RNlwEdU5" opacity="1" fill-opacity="0" stroke="#000000" stroke-width="1" stroke-opacity="0"></use></g></g><g><use xlink:href="#d47VtjKCHs" opacity="1" fill="#3d5af1" fill-opacity="0.6"></use><g><use xlink:href="#d47VtjKCHs" opacity="1" fill-opacity="0" stroke="#000000" stroke-width="1" stroke-opacity="0"></use></g></g><g><use xlink:href="#erp3UgsQ" opacity="1" fill="#3d5af1" fill-opacity="1"></use><g><use xlink:href="#erp3UgsQ" opacity="1" fill-opacity="0" stroke="#000000" stroke-width="1" stroke-opacity="0"></use></g></g></g></g></svg>