<svg xmlns="http://www.w3.org/2000/svg" viewBox="0 0 100 100">
<circle cx="14" cy="29" r="2" fill="#ee3e54"/><circle cx="78" cy="13" r="1" fill="#f1bc19"/><circle cx="51" cy="50" r="37" fill="#fce0a2"/><circle cx="84" cy="15" r="4" fill="#f1bc19"/><circle cx="88" cy="24" r="2" fill="#ee3e54"/><circle cx="82" cy="76" r="2" fill="#fbcd59"/><circle cx="21" cy="72" r="4" fill="#fbcd59"/><circle cx="26" cy="87" r="2" fill="#ee3e54"/><circle cx="22.5" cy="61.5" r="2.5" fill="#fff"/><circle cx="29" cy="76" r="1" fill="#f1bc19"/><circle cx="81" cy="34" r="1" fill="#fff"/><path fill="#88ae45" d="M55.5,26.5c0-0.829-2.015-1.5-4.5-1.5s-4.5,0.671-4.5,1.5c0,0.652,1,1.5,3,1.408V33h3v-5.092 C54.5,28,55.5,27.152,55.5,26.5z"/><path fill="#472b29" d="M52.5,33.5h-3c-0.276,0-0.5-0.224-0.5-0.5v-4.589c-1.06-0.036-1.952-0.339-2.495-0.857 C46.18,27.243,46,26.868,46,26.5c0-1.374,2.592-2,5-2s5,0.626,5,2c0,0.368-0.18,0.743-0.505,1.054 c-0.543,0.518-1.435,0.821-2.495,0.857V33C53,33.276,52.776,33.5,52.5,33.5z M50,32.5h2v-4.592c0-0.136,0.056-0.267,0.155-0.362 c0.099-0.094,0.235-0.143,0.368-0.138c1.486,0.067,2.121-0.425,2.281-0.578C54.948,26.693,55,26.569,55,26.5c0-0.257-1.375-1-4-1 s-4,0.743-4,1c0,0.069,0.052,0.193,0.196,0.331c0.16,0.153,0.809,0.647,2.281,0.578c0.135-0.005,0.269,0.043,0.368,0.138 C49.944,27.641,50,27.772,50,27.908V32.5z"/><path fill="#88ae45" d="M52.5,73.092V68h-3v5.092c-2-0.092-3,0.756-3,1.408c0,0.828,2.015,1.5,4.5,1.5s4.5-0.672,4.5-1.5 C55.5,73.848,54.5,73,52.5,73.092z"/><path fill="#472b29" d="M51,76.5c-2.408,0-5-0.626-5-2c0-0.368,0.18-0.742,0.505-1.054 c0.543-0.519,1.435-0.821,2.495-0.857V68c0-0.276,0.224-0.5,0.5-0.5h3c0.276,0,0.5,0.224,0.5,0.5v4.589 c1.06,0.036,1.952,0.339,2.495,0.857C55.82,73.757,56,74.132,56,74.5C56,75.874,53.408,76.5,51,76.5z M49.203,73.585 c-1.289,0-1.857,0.441-2.006,0.584C47.052,74.307,47,74.431,47,74.5c0,0.257,1.375,1,4,1s4-0.743,4-1 c0-0.069-0.052-0.193-0.196-0.331c-0.16-0.153-0.804-0.643-2.281-0.578c-0.135,0.003-0.27-0.043-0.368-0.138 C52.056,73.359,52,73.228,52,73.092V68.5h-2v4.592c0,0.136-0.056,0.267-0.155,0.362c-0.099,0.094-0.231,0.141-0.368,0.138 C49.382,73.587,49.291,73.585,49.203,73.585z"/><path fill="#88ae45" d="M75,46c-0.652,0-1.202,1.256-1.408,3H68.5v3h5.092c0.207,1.744,0.756,3,1.408,3 c0.828,0,1.5-2.015,1.5-4.5S75.828,46,75,46z"/><path fill="#472b29" d="M75,55.5c-0.872,0-1.548-1.112-1.844-3H68.5c-0.276,0-0.5-0.224-0.5-0.5v-3 c0-0.276,0.224-0.5,0.5-0.5h4.656c0.296-1.888,0.973-3,1.844-3c1.374,0,2,2.592,2,5S76.374,55.5,75,55.5z M69,51.5h4.592 c0.253,0,0.467,0.189,0.497,0.441C74.315,53.86,74.871,54.5,75,54.5c0.257,0,1-1.375,1-4s-0.743-4-1-4 c-0.129,0-0.685,0.64-0.912,2.559c-0.03,0.252-0.243,0.441-0.497,0.441H69V51.5z"/><path fill="#88ae45" d="M33.5,49h-5.092c-0.207-1.744-0.756-3-1.408-3c-0.828,0-1.5,2.015-1.5,4.5S26.172,55,27,55 c0.652,0,1.202-1.256,1.408-3H33.5V49z"/><path fill="#472b29" d="M27,55.5c-1.374,0-2-2.592-2-5s0.626-5,2-5c0.872,0,1.548,1.112,1.844,3H33.5 c0.276,0,0.5,0.224,0.5,0.5v3c0,0.276-0.224,0.5-0.5,0.5h-4.656C28.548,54.388,27.872,55.5,27,55.5z M27,46.5 c-0.257,0-1,1.375-1,4s0.743,4,1,4c0.129,0,0.685-0.64,0.912-2.559c0.03-0.252,0.243-0.441,0.497-0.441H33v-2h-4.592 c-0.253,0-0.467-0.189-0.497-0.441C27.685,47.14,27.129,46.5,27,46.5z"/><circle cx="51" cy="50.5" r="19.5" fill="#88ae45"/><path fill="#472b29" d="M51,70.5c-11.028,0-20-8.972-20-20s8.972-20,20-20s20,8.972,20,20S62.028,70.5,51,70.5z M51,31.5 c-10.477,0-19,8.523-19,19s8.523,19,19,19s19-8.523,19-19S61.477,31.5,51,31.5z"/><path fill="#88ae45" d="M69.031,32.469c-1.757-1.757-3.657-2.707-4.243-2.121c-0.461,0.461,0.039,1.738,1.126,3.117 l-3.6,3.601l2.121,2.121l3.6-3.6c1.379,1.087,2.656,1.586,3.117,1.125C71.738,36.125,70.789,34.226,69.031,32.469z"/><path fill="#472b29" d="M64.435,39.686c-0.128,0-0.256-0.049-0.354-0.146c-0.195-0.195-0.195-0.512,0-0.707l3.601-3.6 c0.179-0.18,0.463-0.196,0.663-0.039c1.519,1.197,2.362,1.256,2.454,1.165c0.182-0.182-0.265-1.68-2.121-3.536 c-1.857-1.857-3.354-2.301-3.536-2.121c-0.091,0.091-0.031,0.936,1.165,2.454c0.157,0.199,0.14,0.484-0.039,0.663l-3.601,3.601 c-0.195,0.195-0.512,0.195-0.707,0s-0.195-0.512,0-0.707l3.292-3.292c-1.125-1.544-1.433-2.809-0.817-3.425 c0.971-0.972,3.247,0.418,4.95,2.121c1.703,1.703,3.093,3.978,2.121,4.95c-0.615,0.616-1.88,0.309-3.425-0.817l-3.292,3.292 C64.691,39.637,64.563,39.686,64.435,39.686z"/><path fill="#88ae45" d="M39.686,63.935l-2.121-2.121l-3.601,3.6c-1.379-1.087-2.656-1.587-3.117-1.125 c-0.586,0.586,0.364,2.485,2.121,4.243c1.757,1.757,3.657,2.707,4.243,2.121c0.461-0.461-0.039-1.738-1.126-3.117L39.686,63.935z"/><path fill="#472b29" d="M36.718,71.327c-1.134,0-2.789-1.128-4.103-2.442c-1.703-1.703-3.093-3.978-2.121-4.95 c0.615-0.616,1.881-0.309,3.425,0.817l3.292-3.292c0.195-0.195,0.512-0.195,0.707,0s0.195,0.512,0,0.707l-3.601,3.6 c-0.18,0.179-0.465,0.196-0.663,0.039c-1.519-1.197-2.361-1.255-2.454-1.165c-0.182,0.182,0.265,1.68,2.121,3.536 c1.855,1.856,3.351,2.302,3.536,2.121c0.091-0.091,0.032-0.936-1.165-2.454c-0.157-0.199-0.14-0.484,0.039-0.663l3.601-3.601 c0.195-0.195,0.512-0.195,0.707,0s0.195,0.512,0,0.707l-3.292,3.292c1.125,1.544,1.434,2.809,0.817,3.426 C37.343,71.228,37.053,71.327,36.718,71.327z"/><g><path fill="#88ae45" d="M39.686,37.065l-3.6-3.601c1.087-1.379,1.587-2.656,1.126-3.117 c-0.586-0.586-2.485,0.364-4.243,2.121c-1.757,1.757-2.707,3.657-2.121,4.243c0.461,0.461,1.738-0.039,3.117-1.125l3.601,3.6 L39.686,37.065z"/></g><g><path fill="#88ae45" d="M71.153,64.288c-0.461-0.461-1.738,0.039-3.117,1.125l-3.6-3.6l-2.121,2.121l3.6,3.601 c-1.087,1.379-1.587,2.656-1.126,3.117c0.586,0.586,2.485-0.364,4.243-2.121C70.789,66.774,71.738,64.874,71.153,64.288z"/></g><g><ellipse cx="51.5" cy="38" fill="#6f913d" rx="4" ry="3"/><path fill="#472b29" d="M51.5,41.5c-2.481,0-4.5-1.57-4.5-3.5s2.019-3.5,4.5-3.5S56,36.07,56,38S53.981,41.5,51.5,41.5z M51.5,35.5c-1.93,0-3.5,1.122-3.5,2.5s1.57,2.5,3.5,2.5S55,39.378,55,38S53.43,35.5,51.5,35.5z"/></g><g><ellipse cx="51.5" cy="64" fill="#6f913d" rx="4" ry="3"/><path fill="#472b29" d="M51.5,67.5c-2.481,0-4.5-1.57-4.5-3.5s2.019-3.5,4.5-3.5S56,62.07,56,64S53.981,67.5,51.5,67.5z M51.5,61.5c-1.93,0-3.5,1.122-3.5,2.5s1.57,2.5,3.5,2.5S55,65.378,55,64S53.43,61.5,51.5,61.5z"/></g><g><ellipse cx="65.027" cy="54.607" fill="#6f913d" rx="4" ry="3" transform="rotate(-75.072 65.029 54.61)"/><path fill="#472b29" d="M64.58,59.048c-0.238,0-0.476-0.03-0.712-0.093l0,0c-1.865-0.497-2.862-2.852-2.223-5.25 c0.639-2.398,2.675-3.943,4.542-3.447c1.864,0.497,2.861,2.853,2.222,5.25C67.851,57.603,66.225,59.048,64.58,59.048z M64.126,57.989c1.331,0.355,2.82-0.873,3.317-2.738c0.497-1.865-0.183-3.671-1.514-4.026c-1.333-0.355-2.82,0.873-3.318,2.738 C62.115,55.827,62.794,57.633,64.126,57.989L64.126,57.989z"/></g><g><circle cx="42.5" cy="45" r="4" fill="#6f913d"/></g><g><circle cx="59.5" cy="45" r="4" fill="#6f913d"/></g><g><circle cx="51.5" cy="53" r="4" fill="#6f913d"/></g><g><path fill="#472b29" d="M37.565,39.686c-0.128,0-0.256-0.049-0.354-0.146l-3.292-3.292 c-1.544,1.126-2.81,1.433-3.425,0.817c-0.972-0.972,0.418-3.247,2.121-4.95c1.703-1.703,3.979-3.093,4.95-2.121 c0.617,0.616,0.309,1.881-0.817,3.425l3.292,3.292c0.195,0.195,0.195,0.512,0,0.707s-0.512,0.195-0.707,0l-3.601-3.601 c-0.179-0.179-0.196-0.464-0.039-0.663c1.196-1.518,1.256-2.362,1.165-2.453c-0.181-0.182-1.679,0.264-3.536,2.121 c-1.856,1.856-2.303,3.354-2.121,3.536c0.093,0.092,0.935,0.033,2.454-1.165c0.199-0.157,0.484-0.14,0.663,0.039l3.601,3.6 c0.195,0.195,0.195,0.512,0,0.707C37.821,39.637,37.693,39.686,37.565,39.686z"/></g><g><path fill="#472b29" d="M65.282,71.327c-0.335,0-0.625-0.099-0.847-0.321c-0.616-0.616-0.309-1.881,0.817-3.425 l-3.292-3.292c-0.195-0.195-0.195-0.512,0-0.707s0.512-0.195,0.707,0l3.601,3.601c0.179,0.179,0.196,0.464,0.039,0.663 c-1.196,1.517-1.255,2.363-1.165,2.454c0.186,0.182,1.68-0.265,3.536-2.121c1.856-1.856,2.303-3.354,2.121-3.536 c-0.091-0.091-0.935-0.032-2.454,1.165c-0.199,0.157-0.483,0.141-0.663-0.039l-3.601-3.6c-0.195-0.195-0.195-0.512,0-0.707 s0.512-0.195,0.707,0l3.292,3.292c1.543-1.126,2.81-1.434,3.425-0.817c0.972,0.972-0.418,3.247-2.121,4.95 C68.071,70.199,66.416,71.326,65.282,71.327z"/></g><g><ellipse cx="38.373" cy="55.866" fill="#6f913d" rx="3" ry="4" transform="rotate(-20.339 38.368 55.86)"/><path fill="#472b29" d="M38.953,60.261c-0.619,0-1.254-0.198-1.856-0.586c-0.884-0.57-1.596-1.49-2.005-2.593 c-0.863-2.326-0.092-4.765,1.717-5.436c0.902-0.334,1.912-0.189,2.841,0.41c0.884,0.57,1.596,1.491,2.005,2.593 s0.469,2.265,0.17,3.273c-0.314,1.06-0.985,1.828-1.887,2.162C39.619,60.203,39.289,60.261,38.953,60.261z M37.79,52.472 c-0.219,0-0.432,0.037-0.634,0.112c-1.292,0.479-1.798,2.341-1.127,4.151c0.334,0.901,0.905,1.647,1.609,2.1 c0.659,0.424,1.353,0.535,1.952,0.313l0,0c0.6-0.222,1.053-0.759,1.276-1.509c0.238-0.802,0.185-1.74-0.149-2.641 c-0.334-0.901-0.905-1.647-1.609-2.1C38.671,52.615,38.22,52.472,37.79,52.472z"/></g><g><path fill="#472b29" d="M49.118,56.714c-0.104,0-0.208-0.032-0.297-0.099C47.681,55.769,47,54.418,47,53 c0-0.567,0.104-1.121,0.31-1.645c0.101-0.257,0.392-0.383,0.648-0.282c0.257,0.101,0.384,0.391,0.283,0.648 C48.081,52.128,48,52.558,48,53c0,1.119,0.517,2.145,1.417,2.813c0.222,0.165,0.268,0.478,0.104,0.699 C49.422,56.644,49.271,56.714,49.118,56.714z"/></g><g><path fill="#472b29" d="M51.5,57.5c-0.276,0-0.5-0.224-0.5-0.5s0.224-0.5,0.5-0.5c1.93,0,3.5-1.57,3.5-3.5 s-1.57-3.5-3.5-3.5c-0.6,0-1.191,0.154-1.711,0.446c-0.239,0.135-0.545,0.05-0.681-0.191c-0.135-0.241-0.05-0.546,0.191-0.681 c0.668-0.375,1.429-0.574,2.2-0.574c2.481,0,4.5,2.019,4.5,4.5S53.981,57.5,51.5,57.5z"/></g><g><path fill="#472b29" d="M59.5,49.5c-2.481,0-4.5-2.019-4.5-4.5c0-1.359,0.604-2.63,1.658-3.489 c0.215-0.175,0.53-0.142,0.704,0.072c0.174,0.214,0.142,0.529-0.072,0.704C56.47,42.954,56,43.943,56,45c0,1.93,1.57,3.5,3.5,3.5 S63,46.93,63,45s-1.57-3.5-3.5-3.5c-0.276,0-0.5-0.224-0.5-0.5s0.224-0.5,0.5-0.5c2.481,0,4.5,2.019,4.5,4.5 S61.981,49.5,59.5,49.5z"/></g><g><path fill="#472b29" d="M42.5,49.5c-2.481,0-4.5-2.019-4.5-4.5c0-0.276,0.224-0.5,0.5-0.5S39,44.724,39,45 c0,1.93,1.57,3.5,3.5,3.5S46,46.93,46,45s-1.57-3.5-3.5-3.5c-1.065,0-2.06,0.477-2.729,1.308c-0.173,0.215-0.487,0.25-0.703,0.076 c-0.215-0.173-0.249-0.488-0.076-0.703c0.86-1.068,2.139-1.681,3.508-1.681c2.481,0,4.5,2.019,4.5,4.5S44.981,49.5,42.5,49.5z"/></g></svg>